<svg width="32" height="32" viewBox="0 0 32 32" fill="none" xmlns="http://www.w3.org/2000/svg">
<path d="M12.5863 20.0867L22.5598 12.7155C23.0488 12.3541 23.7477 12.4951 23.9807 13.0564C25.2069 16.0166 24.659 19.5741 22.2194 22.0167C19.7798 24.4592 16.3853 24.9948 13.2826 23.7749L9.89327 25.346C14.7546 28.6728 20.6578 27.8501 24.3467 24.1542C27.2728 21.2247 28.179 17.2315 27.3316 13.6305L27.3393 13.6382C26.1105 8.34814 27.6414 6.23365 30.7773 1.90986C30.8515 1.80734 30.9257 1.70481 31 1.59973L26.8733 5.7313V5.71849L12.5838 20.0893" fill="#1D1C1B"/>
<path d="M10.5282 21.8783C7.03892 18.5412 7.64051 13.3767 10.6177 10.3986C12.8192 8.19435 16.4262 7.29474 19.575 8.61725L22.9567 7.05382C22.3475 6.61298 21.5666 6.13883 20.6706 5.80563C16.6208 4.13712 11.7723 4.96753 8.48017 8.26099C5.31352 11.4314 4.31769 16.3063 6.02774 20.4661C7.30516 23.575 5.21111 25.774 3.10172 27.9936C2.35421 28.7804 1.60415 29.5673 1 30.4003L10.5256 21.8808" fill="#1D1C1B"/>
</svg>
