<svg width="32" height="32" viewBox="0 0 32 32" fill="none" xmlns="http://www.w3.org/2000/svg">
<path d="M16.7486 11.9246H6.32417V2.20117L16.7486 11.9246ZM7.66584 10.5826H13.343L7.66584 5.28719V10.5826Z" fill="#20808D"/>
<path d="M24.0187 11.9246H13.5942L24.0187 2.20117V11.9246ZM16.9998 10.5826H22.677V5.2875L16.9998 10.5826Z" fill="#20808D"/>
<path d="M15.7256 2.53199V30.0383H14.3839V2.53199H15.7256Z" fill="#20808D"/>
<path d="M23.7674 18.3693V30.2012L14.3751 21.8264V9.7328L23.7674 18.3693ZM15.7168 21.225L22.4257 27.2071V18.9583L15.7168 12.7893V21.225Z" fill="#20808D"/>
<path d="M15.7256 21.8264L6.33327 30.2012V18.3693L15.7256 9.7328V21.8264ZM7.67494 18.9583V27.2071L14.3839 21.225V12.7893L7.67494 18.9583Z" fill="#20808D"/>
<path d="M16.7757 10.5828L7.67315 18.9506V22.6588H3.02783V10.5828H16.7757ZM4.3695 21.3171H6.33117V18.362L13.3335 11.9245H4.3695V21.3171Z" fill="#20808D"/>
<path d="M27.1219 10.6816V22.7575H22.4257V19.0497L13.325 10.6816H27.1219ZM23.7674 18.4607V21.4159H25.7802V12.0233H16.7669L23.7674 18.4607Z" fill="#20808D"/>
</svg>
